<?xml version="1.0" encoding="UTF-8"?>
<svg width="56px" height="51px" viewBox="0 0 56 51" version="1.1" xmlns="http://www.w3.org/2000/svg" xmlns:xlink="http://www.w3.org/1999/xlink">
    <title>folder-page</title>
    <g id="Page-1" stroke="none" stroke-width="1" fill="none" fill-rule="evenodd">
        <g id="folder-page" fill-rule="nonzero">
            <rect id="Rectangle" fill="#000000" opacity="0.2" x="0" y="15" width="56" height="36" rx="2.8"></rect>
            <path d="M2.8,0 C1.25,0 0,1.25 0,2.8 L0,39.2 C0,40.75 1.25,42 2.8,42 L53.2,42 C54.75,42 56,40.75 56,39.2 L56,8.8 C56,7.25 54.75,6 53.2,6 L26,6 L26,2.8 C26,1.245 24.75,0 23.2,0 L2.8,0 Z" id="Path" fill="#E0E0E0"></path>
            <rect id="Rectangle" fill="#000000" opacity="0.2" x="0" y="13.5" width="56" height="36" rx="2.8"></rect>
            <rect id="Rectangle" fill="#A3FFB1" x="0" y="14" width="56" height="36" rx="2.8"></rect>
            <path d="M2.8,0 C1.25,0 0,1.25 0,2.8 L0,3.8 C0,2.25 1.25,1 2.8,1 L23.2,1 C24.75,1 26,2.2458 26,3.8 L26,2.8 C26,1.2458 24.75,0 23.2,0 L2.8,0 Z M26,6 L26,7 L53.2,7 C54.745,7 56,8.25 56,9.8 L56,8.8 C56,7.25 54.75,6 53.2,6 L26,6 Z" id="Shape" fill="#FFFFFF" opacity="0.1"></path>
            <path d="M21.5,22 C20.669,22 20,22.669 20,23.5 L20,40.5 C20,41.331 20.669,42 21.5,42 L34.5,42 C35.331,42 36,41.331 36,40.5 L36,27 L31,22 L21.5,22 Z" id="Path" fill="#428D4E"></path>
        </g>
    </g>
</svg>